<?xml version="1.0" standalone="no"?>
<!DOCTYPE svg PUBLIC "-//W3C//DTD SVG 20010904//EN"
 "http://www.w3.org/TR/2001/REC-SVG-20010904/DTD/svg10.dtd">
<svg version="1.0" xmlns="http://www.w3.org/2000/svg"
 width="559.000000pt" height="554.000000pt" viewBox="0 0 559.000000 554.000000"
 preserveAspectRatio="xMidYMid meet">

<g transform="translate(0.000000,554.000000) scale(0.100000,-0.100000)"
fill="#000000" stroke="none">
<path d="M2560 5308 c-769 -71 -1479 -491 -1904 -1127 -232 -346 -367 -721
-416 -1149 -18 -156 -8 -525 19 -677 170 -977 847 -1742 1795 -2029 242 -74
473 -106 754 -107 586 0 1143 195 1612 565 119 94 348 330 442 456 278 372
444 785 499 1245 17 145 15 446 -5 594 -54 406 -194 776 -418 1109 -139 207
-381 459 -595 619 -506 381 -1146 560 -1783 501z m1361 -1371 c177 -46 333
-122 464 -224 49 -39 54 -46 43 -61 -7 -10 -64 -85 -127 -168 -63 -82 -116
-150 -117 -152 -1 -2 -28 17 -61 42 -212 164 -510 209 -765 116 -110 -40 -192
-93 -273 -175 -153 -157 -224 -346 -212 -575 16 -327 227 -591 544 -682 102
-29 322 -32 423 -5 90 23 255 108 317 162 l52 45 53 -57 c29 -32 95 -102 147
-157 l94 -99 -39 -34 c-346 -300 -801 -394 -1238 -256 -75 23 -209 85 -263
120 -21 14 -22 17 -8 43 20 39 19 58 -6 105 -14 27 -21 56 -20 90 1 33 -7 74
-24 118 -14 37 -25 76 -25 86 0 16 -11 20 -67 25 -38 4 -91 9 -119 12 -30 3
-73 0 -107 -9 -52 -14 -58 -14 -66 1 -25 48 -81 218 -97 292 -22 105 -25 342
-5 450 89 497 485 882 991 965 135 23 390 13 511 -18z m-2169 -949 l3 -933
363 0 362 0 0 -36 c0 -60 45 -135 116 -191 l64 -50 0 -64 0 -64 -685 0 -685 0
0 1135 0 1135 230 0 230 0 2 -932z"/>
<path d="M12 3020 c0 -14 2 -19 5 -12 2 6 2 18 0 25 -3 6 -5 1 -5 -13z"/>
<path d="M3 2770 c0 -47 2 -66 4 -42 2 23 2 61 0 85 -2 23 -4 4 -4 -43z"/>
</g>
</svg>
